<svg xmlns="http://www.w3.org/2000/svg" xmlns:xlink="http://www.w3.org/1999/xlink" width="500" zoomAndPan="magnify" viewBox="0 0 375 374.999991" height="500" preserveAspectRatio="xMidYMid meet" version="1.0"><defs><g/></defs><rect x="-37.5" width="450" fill="#ffffff" y="-37.499999" height="449.999989" fill-opacity="1"/><rect x="-37.5" width="450" fill="#bfd202" y="-37.499999" height="449.999989" fill-opacity="1"/><path fill="#0a5247" d="M 174.804688 182.992188 C 171.773438 176.011719 167.269531 162.425781 171.691406 147.921875 C 178.953125 124.121094 207.429688 107.054688 241.703125 109.265625 C 246.253906 138.300781 235.039062 165.503906 213.90625 177.640625 C 199.671875 185.8125 184.925781 184.863281 177.941406 183.886719 C 185.089844 178.46875 193.117188 171.503906 201.140625 162.6875 C 213.527344 149.082031 221.792969 135.578125 227.265625 124.804688 C 219.40625 135.769531 209.960938 147.613281 198.675781 159.714844 C 190.53125 168.449219 182.488281 176.179688 174.804688 182.992188 Z M 174.804688 182.992188 " fill-opacity="1" fill-rule="nonzero"/><path fill="#0a5247" d="M 165.667969 183.75 C 160.320312 185.367188 150.023438 187.492188 139.820312 183.03125 C 123.078125 175.707031 113.054688 153.480469 117.589844 128.667969 C 139.15625 127.820312 158.042969 138.320312 165.09375 154.769531 C 169.84375 165.851562 167.894531 176.523438 166.585938 181.539062 C 163.242188 175.859375 158.847656 169.410156 153.101562 162.804688 C 144.230469 152.613281 135.085938 145.429688 127.695312 140.523438 C 135.023438 147.191406 142.855469 155.089844 150.722656 164.351562 C 156.398438 171.039062 161.351562 177.5625 165.667969 183.75 Z M 165.667969 183.75 " fill-opacity="1" fill-rule="nonzero"/><g fill="#ffffff" fill-opacity="1"><g transform="translate(97.375468, 225.452884)"><g><path d="M 25.015625 1.515625 C 20.503906 1.515625 16.507812 0.460938 13.03125 -1.640625 C 9.550781 -3.742188 6.835938 -6.664062 4.890625 -10.40625 C 2.941406 -14.144531 1.96875 -18.46875 1.96875 -23.375 C 1.96875 -28.3125 3.003906 -32.660156 5.078125 -36.421875 C 7.160156 -40.191406 10.050781 -43.125 13.75 -45.21875 C 17.445312 -47.320312 21.722656 -48.375 26.578125 -48.375 C 30.035156 -48.375 33.207031 -47.726562 36.09375 -46.4375 C 38.988281 -45.144531 41.453125 -43.347656 43.484375 -41.046875 C 45.523438 -38.753906 46.9375 -36.097656 47.71875 -33.078125 L 37.421875 -30.921875 C 36.671875 -33.234375 35.289062 -35.125 33.28125 -36.59375 C 31.269531 -38.0625 28.992188 -38.796875 26.453125 -38.796875 C 23.867188 -38.796875 21.570312 -38.140625 19.5625 -36.828125 C 17.550781 -35.515625 15.984375 -33.707031 14.859375 -31.40625 C 13.742188 -29.113281 13.1875 -26.4375 13.1875 -23.375 C 13.1875 -20.300781 13.820312 -17.582031 15.09375 -15.21875 C 16.363281 -12.863281 18.113281 -11.019531 20.34375 -9.6875 C 22.582031 -8.351562 25.144531 -7.6875 28.03125 -7.6875 C 30.519531 -7.6875 32.75 -8.195312 34.71875 -9.21875 C 36.6875 -10.25 38.269531 -11.660156 39.46875 -13.453125 C 40.675781 -15.242188 41.328125 -17.28125 41.421875 -19.5625 L 21.328125 -19.5625 L 21.328125 -26.515625 L 52.375 -26.515625 L 52.375 0 L 44.171875 0 L 43.0625 -8.859375 L 43 -8.859375 C 41.507812 -5.617188 39.164062 -3.078125 35.96875 -1.234375 C 32.769531 0.597656 29.117188 1.515625 25.015625 1.515625 Z M 25.015625 1.515625 "/></g></g></g><g fill="#ffffff" fill-opacity="1"><g transform="translate(150.934644, 225.452884)"><g><path d="M 2.625 0 L 2.625 -48.703125 L 12.671875 -48.703125 L 12.671875 0 Z M 2.625 0 "/></g></g></g><g fill="#ffffff" fill-opacity="1"><g transform="translate(164.783614, 225.452884)"><g><path d="M 13.515625 0.984375 C 10.066406 0.984375 7.351562 -0.0195312 5.375 -2.03125 C 3.40625 -4.039062 2.421875 -6.84375 2.421875 -10.4375 L 2.421875 -33.609375 L 12.46875 -33.609375 L 12.46875 -13.515625 C 12.46875 -11.640625 12.96875 -10.144531 13.96875 -9.03125 C 14.976562 -7.914062 16.359375 -7.359375 18.109375 -7.359375 C 20.304688 -7.359375 22.082031 -8.066406 23.4375 -9.484375 C 24.789062 -10.910156 25.46875 -12.757812 25.46875 -15.03125 L 25.46875 -33.609375 L 35.515625 -33.609375 L 35.515625 0 L 27.046875 0 L 25.53125 -6.109375 L 25.46875 -6.109375 C 24.238281 -3.828125 22.609375 -2.070312 20.578125 -0.84375 C 18.546875 0.375 16.191406 0.984375 13.515625 0.984375 Z M 13.515625 0.984375 "/></g></g></g><g fill="#ffffff" fill-opacity="1"><g transform="translate(201.539791, 225.452884)"><g><path d="M 19.625 1.3125 C 16.039062 1.3125 12.878906 0.546875 10.140625 -0.984375 C 7.398438 -2.515625 5.273438 -4.632812 3.765625 -7.34375 C 2.265625 -10.0625 1.515625 -13.210938 1.515625 -16.796875 C 1.515625 -20.390625 2.242188 -23.539062 3.703125 -26.25 C 5.171875 -28.96875 7.226562 -31.09375 9.875 -32.625 C 12.519531 -34.15625 15.570312 -34.921875 19.03125 -34.921875 C 21.875 -34.921875 24.441406 -34.394531 26.734375 -33.34375 C 29.035156 -32.289062 30.953125 -30.820312 32.484375 -28.9375 C 34.023438 -27.0625 35.035156 -24.878906 35.515625 -22.390625 L 26.390625 -20.015625 C 26.035156 -22.203125 25.191406 -23.875 23.859375 -25.03125 C 22.523438 -26.195312 21.003906 -26.78125 19.296875 -26.78125 C 17.023438 -26.78125 15.15625 -25.859375 13.6875 -24.015625 C 12.21875 -22.179688 11.484375 -19.773438 11.484375 -16.796875 C 11.523438 -13.828125 12.34375 -11.421875 13.9375 -9.578125 C 15.539062 -7.742188 17.546875 -6.828125 19.953125 -6.828125 C 22.054688 -6.828125 23.863281 -7.546875 25.375 -8.984375 C 26.882812 -10.429688 27.769531 -12.296875 28.03125 -14.578125 L 37.34375 -13.265625 C 37.039062 -10.367188 36.085938 -7.828125 34.484375 -5.640625 C 32.890625 -3.453125 30.8125 -1.742188 28.25 -0.515625 C 25.695312 0.703125 22.820312 1.3125 19.625 1.3125 Z M 19.625 1.3125 "/></g></g></g><g fill="#ffffff" fill-opacity="1"><g transform="translate(238.558519, 225.452884)"><g><path d="M 21.59375 1.3125 C 17.65625 1.3125 14.175781 0.535156 11.15625 -1.015625 C 8.132812 -2.566406 5.769531 -4.722656 4.0625 -7.484375 C 2.363281 -10.242188 1.515625 -13.414062 1.515625 -17 C 1.515625 -20.539062 2.265625 -23.65625 3.765625 -26.34375 C 5.273438 -29.039062 7.398438 -31.144531 10.140625 -32.65625 C 12.878906 -34.164062 16.039062 -34.921875 19.625 -34.921875 C 23.125 -34.921875 26.175781 -34.195312 28.78125 -32.75 C 31.382812 -31.3125 33.421875 -29.3125 34.890625 -26.75 C 36.359375 -24.1875 37.09375 -21.222656 37.09375 -17.859375 C 37.09375 -17.203125 37.046875 -16.53125 36.953125 -15.84375 C 36.867188 -15.164062 36.757812 -14.566406 36.625 -14.046875 L 11.8125 -14.046875 C 12.125 -11.640625 13.207031 -9.703125 15.0625 -8.234375 C 16.925781 -6.765625 19.234375 -6.03125 21.984375 -6.03125 C 24.085938 -6.03125 26.054688 -6.457031 27.890625 -7.3125 C 29.734375 -8.164062 31.132812 -9.273438 32.09375 -10.640625 L 37.8125 -6.234375 C 36.457031 -4.003906 34.320312 -2.1875 31.40625 -0.78125 C 28.5 0.613281 25.226562 1.3125 21.59375 1.3125 Z M 11.75 -19.828125 L 26.90625 -19.828125 C 26.738281 -22.316406 26 -24.257812 24.6875 -25.65625 C 23.375 -27.0625 21.6875 -27.765625 19.625 -27.765625 C 17.519531 -27.765625 15.753906 -27.03125 14.328125 -25.5625 C 12.910156 -24.101562 12.050781 -22.191406 11.75 -19.828125 Z M 11.75 -19.828125 "/></g></g></g></svg>